<svg xmlns="http://www.w3.org/2000/svg" xmlns:xlink="http://www.w3.org/1999/xlink" viewBox="0 0 264.49 83.75"><defs><style>.cls-1{fill:none;}.cls-2{fill:gray;}.cls-3{fill:#1b1b1b;}.cls-4{fill:#79c1ea;}.cls-5{clip-path:url(#clip-path);}.cls-6{fill:url(#linear-gradient);}.cls-7{clip-path:url(#clip-path-2);}.cls-8{fill:url(#linear-gradient-2);}.cls-9{clip-path:url(#clip-path-3);}.cls-10{fill:url(#linear-gradient-3);}</style><clipPath id="clip-path" transform="translate(0 3.27)"><path id="SVGID" class="cls-1" d="M44.32,38.17v.57l8.12,8.13.19-.1,9.63-5.47c2.75-1.57,2.75-4.12,0-5.69l-9.63-5.47-.18-.1Z"/></clipPath><linearGradient id="linear-gradient" x1="812.78" y1="-7744.57" x2="814.01" y2="-7744.57" gradientTransform="matrix(-38.89, 0, 0, 38.89, 31666.04, 301193.62)" gradientUnits="userSpaceOnUse"><stop offset="0" stop-color="#f3db4b"/><stop offset="0.4" stop-color="#edba46"/><stop offset="0.77" stop-color="#e8a241"/><stop offset="1" stop-color="#e69940"/></linearGradient><clipPath id="clip-path-2" transform="translate(0 3.27)"><path id="SVGID-2" data-name="SVGID" class="cls-1" d="M19.79,63c.91,1,2.41,1.08,4.09.12L52.63,46.77l-8.31-8.31Z"/></clipPath><linearGradient id="linear-gradient-2" x1="913.01" y1="-7852.51" x2="914.23" y2="-7852.51" gradientTransform="matrix(-51.72, 0, 0, 51.72, 47273.92, 406205.95)" gradientUnits="userSpaceOnUse"><stop offset="0" stop-color="#d7534f"/><stop offset="1" stop-color="#b02e6c"/></linearGradient><clipPath id="clip-path-3" transform="translate(0 3.27)"><path id="SVGID-3" data-name="SVGID" class="cls-1" d="M19.79,13.93,44.32,38.46l8.31-8.32L23.88,13.81a4.51,4.51,0,0,0-2.2-.66,2.52,2.52,0,0,0-1.89.78"/></clipPath><linearGradient id="linear-gradient-3" x1="912.79" y1="-8099.52" x2="914.02" y2="-8099.52" gradientTransform="matrix(0, 42.23, 42.23, 0, 342082.43, -38571.23)" gradientUnits="userSpaceOnUse"><stop offset="0" stop-color="#4f9773"/><stop offset="0.25" stop-color="#5fa273"/><stop offset="0.71" stop-color="#77b473"/><stop offset="1" stop-color="#80ba73"/></linearGradient></defs><g id="Layer_2" data-name="Layer 2"><g id="Layer_1-2" data-name="Layer 1"><path class="cls-2" d="M255.45,76.46H9a9,9,0,0,1-9-9V9A9,9,0,0,1,9,0H255.45a9,9,0,0,1,9,9V67.42a9,9,0,0,1-9,9" transform="translate(0 3.27)"/><path class="cls-3" d="M133.43,41.9a8.38,8.38,0,1,0,8.41,8.38,8.27,8.27,0,0,0-8.41-8.38m0,13.46a5.09,5.09,0,1,1,4.73-5.08,4.85,4.85,0,0,1-4.73,5.08M115.09,41.9a8.38,8.38,0,1,0,8.41,8.38,8.27,8.27,0,0,0-8.41-8.38m0,13.46a5.09,5.09,0,1,1,4.73-5.08,4.85,4.85,0,0,1-4.73,5.08M93.27,44.48V48h8.5a7.39,7.39,0,0,1-1.93,4.47,8.71,8.71,0,0,1-6.57,2.6,9.46,9.46,0,0,1,0-18.91,9.06,9.06,0,0,1,6.41,2.54l2.51-2.51a12.41,12.41,0,0,0-8.92-3.58,13,13,0,1,0,0,26A11.88,11.88,0,0,0,102.34,55a11.74,11.74,0,0,0,3.08-8.31,11.27,11.27,0,0,0-.19-2.22Zm89.23,2.76c-.7-1.88-2.82-5.34-7.17-5.34s-7.9,3.4-7.9,8.38a8.19,8.19,0,0,0,8.31,8.38,8.32,8.32,0,0,0,7-3.72L179.87,53a4.78,4.78,0,0,1-4.13,2.32,4.27,4.27,0,0,1-4.06-2.54l11.2-4.63ZM171.08,50a4.59,4.59,0,0,1,4.38-4.89,3.24,3.24,0,0,1,3.11,1.78ZM162,58.15h3.69V33.53H162Zm-6-14.37h-.12a5.79,5.79,0,0,0-4.41-1.88,8.39,8.39,0,0,0,0,16.76,5.7,5.7,0,0,0,4.41-1.91h.12V58c0,3.2-1.71,4.92-4.47,4.92a4.63,4.63,0,0,1-4.22-3l-3.2,1.34a8,8,0,0,0,7.42,5c4.32,0,8-2.54,8-8.73v-15h-3.5Zm-4.21,11.58a5.1,5.1,0,0,1,0-10.16c2.5,0,4.47,2.16,4.47,5.11s-2,5-4.47,5m48-21.83h-8.8V58.15h3.67V48.82h5.13c4.08,0,8.08-3,8.08-7.64s-4-7.65-8.08-7.65m.1,11.87h-5.23V37h5.23a4.22,4.22,0,1,1,0,8.44m22.71-3.54c-2.66,0-5.42,1.17-6.56,3.77L219.25,47a3.49,3.49,0,0,1,3.36-1.8c1.9,0,3.83,1.14,3.87,3.16v.26a8.15,8.15,0,0,0-3.84-1c-3.51,0-7.09,1.93-7.09,5.54,0,3.29,2.88,5.42,6.11,5.42a5.18,5.18,0,0,0,4.69-2.41h.13v1.9H230V48.67c0-4.37-3.26-6.81-7.47-6.81m-.45,13.49c-1.2,0-2.88-.6-2.88-2.09,0-1.9,2.09-2.63,3.9-2.63a6.51,6.51,0,0,1,3.36.83,4.46,4.46,0,0,1-4.38,3.89M243,42.4l-4.22,10.67h-.12L234.24,42.4h-4l6.56,14.92-3.74,8.3h3.83L247,42.4Zm-33.1,15.75h3.67V33.53h-3.67Z" transform="translate(0 3.27)"/><path class="cls-4" d="M19.79,13.93a4,4,0,0,0-.91,2.77V60.22A3.94,3.94,0,0,0,19.79,63l.15.14L44.32,38.74v-.57L19.94,13.79Z" transform="translate(0 3.27)"/><g class="cls-5"><rect class="cls-6" x="44.32" y="33.31" width="20.69" height="16.83"/></g><g class="cls-7"><rect class="cls-8" x="15.55" y="30.6" width="41.32" height="41.32" transform="translate(-25.64 43.89) rotate(-45)"/></g><g class="cls-9"><rect class="cls-10" x="15.65" y="5.24" width="41.11" height="41.11" transform="translate(-7.64 36.43) rotate(-45)"/></g><path class="cls-3" d="M89.53,15.32a4.22,4.22,0,0,0-2.79-1.07,4.34,4.34,0,0,0-4.29,4.45,4.33,4.33,0,0,0,4.29,4.44c2.09,0,3.6-1.21,3.7-3.13h-3.3V18.65h5.08c0,4.07-2.17,6-5.48,6a5.95,5.95,0,0,1,0-11.89,5.74,5.74,0,0,1,3.92,1.53Z" transform="translate(0 3.27)"/><polygon class="cls-3" points="101.22 16.16 101.22 17.62 95.92 17.62 95.92 21.32 100.55 21.32 100.55 22.78 95.92 22.78 95.92 26.28 101.39 26.28 101.39 27.74 94.36 27.74 94.36 16.16 101.22 16.16"/><polygon class="cls-3" points="111.36 16.16 111.36 17.63 107.85 17.63 107.85 27.74 106.27 27.74 106.27 17.63 102.75 17.63 102.75 16.16 111.36 16.16"/><rect class="cls-3" x="117.3" y="16.16" width="1.56" height="11.59"/><polygon class="cls-3" points="129.53 16.16 129.53 17.63 126.01 17.63 126.01 27.74 124.43 27.74 124.43 17.63 120.92 17.63 120.92 16.16 129.53 16.16"/><path class="cls-3" d="M140.56,12.75a5.95,5.95,0,1,1-5.85,5.95,5.88,5.88,0,0,1,5.85-5.95m0,10.37a4.32,4.32,0,0,0,4.31-4.42,4.3,4.3,0,1,0-8.6,0,4.31,4.31,0,0,0,4.29,4.42" transform="translate(0 3.27)"/><polygon class="cls-3" points="155.7 27.74 150.42 19.01 150.42 27.74 148.85 27.74 148.85 16.16 150.4 16.16 155.63 24.82 155.63 16.16 157.19 16.16 157.19 27.74 155.7 27.74"/></g></g></svg>