<svg xmlns="http://www.w3.org/2000/svg" viewBox="0 0 175.27 39.45"><defs><style>.cls-1{fill:#fcfcfc;}.cls-2{fill:#5d79e2;}.cls-3{fill:#a2b0ec;}.cls-4{fill:#a9b7ee;}.cls-5{fill:#8398e7;}.cls-6{fill:#9fafec;}</style></defs><g id="Layer_2" data-name="Layer 2"><g id="Layer_1-2" data-name="Layer 1"><g id="hl3sIs.tif"><path class="cls-1" d="M24.75,37.25c-.6.35-1.23.64-1.85,1-.32,0-.62.25-1,.08a5,5,0,0,0,2.47-3.09,5.08,5.08,0,0,0-9.43-3.62,5,5,0,0,0,1.79,6.5,3.65,3.65,0,0,0,.55.3l.77.25c-.45.1-.7.16-.93-.06l-1.79-.42h0a1.75,1.75,0,0,0-.85-.47l-.07,0a10.7,10.7,0,0,1-5.51-7.74,10.54,10.54,0,1,1,15.9,7.33Z"/><path class="cls-1" d="M24.38,38.19a.69.69,0,0,0,.55-.17l.53-.12A19.4,19.4,0,1,0,11,2a19.26,19.26,0,0,0-4.6,31.71,17.15,17.15,0,0,0,7.08,4.06c-.11-.34-.44-.39-.69-.53A13.91,13.91,0,0,1,5.24,23.18,13.88,13.88,0,0,1,16.62,10.94a14.12,14.12,0,0,1,8.12,26.91l-.06,0-.49.16-.56.17-.73.15c.26.19.47,0,.71-.08h.08a2.07,2.07,0,0,0,.49-.12Z"/><path class="cls-1" d="M55.33,29.23l.71-.11c3.91-.6,7.82-1.17,11.72-1.8A3.37,3.37,0,0,0,70.83,24a9.42,9.42,0,0,0-1-5.08,11.19,11.19,0,0,0-8.33-6A14.28,14.28,0,0,0,51.09,14.4c-4.15,2.52-5.76,6.47-5.7,11.19,0,.54,0,1.09,0,1.63.39,4.15,2.06,7.59,5.67,9.88a16.67,16.67,0,0,0,10.62,2.25A15,15,0,0,0,67.39,38a3.92,3.92,0,0,0,.92-6.65.77.77,0,0,0-1-.15,14,14,0,0,1-7.72,1.51,6.17,6.17,0,0,1-4.77-2.22C54,29.53,54.09,29.45,55.33,29.23Zm-1.14-5.78c-.57.12-.63-.08-.6-.42a4.67,4.67,0,0,1,4-4c2.39-.22,4,.6,4.68,2.41.17.42.17.66-.35.74Z"/><path class="cls-1" d="M100.22,37.87c0,.4,0,.7-.52.79a14.77,14.77,0,0,1-5.66.17,3.09,3.09,0,0,1-2.54-2.51,8.08,8.08,0,0,1-.19-2q0-5.7,0-11.4c0-2.56-1-3.52-3.6-3.47a11.5,11.5,0,0,0-1.18.07c-2.11.28-2.46.68-2.46,2.77v7.15c0,2.74,0,5.49,0,8.23,0,.71-.24.92-.89,1a15.91,15.91,0,0,1-4.87.17,3.21,3.21,0,0,1-3-2.95,13.47,13.47,0,0,1-.13-1.79c0-4.77,0-9.53,0-14.29a5,5,0,0,1,2.66-4.77,19.22,19.22,0,0,1,11.48-2.53,14.31,14.31,0,0,1,6.43,1.65,8.24,8.24,0,0,1,4.46,7.37C100.25,27,100.21,32.44,100.22,37.87Z"/><path class="cls-1" d="M128.85,32.69c-.14-1.71,0-3.44,0-5.16h0c0-1.93.06-3.86,0-5.78-.16-4.29-2.35-7.1-6.45-8.39a23.28,23.28,0,0,0-9.86-.61,13.74,13.74,0,0,0-3.94.94,3.88,3.88,0,0,0-1.4,6.39.87.87,0,0,0,1.1.31,16.64,16.64,0,0,1,4.56-1.12,13.2,13.2,0,0,1,5.38.27,2.42,2.42,0,0,1,1.93,2c.08.51-.06.77-.63.82-1.38.11-2.77.24-4.15.4a25.11,25.11,0,0,0-6,1.06,6.72,6.72,0,0,0-4.1,3.34c-1.57,3.34-1.27,8.8,4.1,11a21.25,21.25,0,0,0,9.71,1.17,16.56,16.56,0,0,0,6.78-1.76C127.84,36.54,129,35.09,128.85,32.69Zm-8.69-2.41h0v.27c0,2,0,2-1.92,2.29a7.81,7.81,0,0,1-3.5-.11,2.12,2.12,0,0,1-1.66-2,1.9,1.9,0,0,1,1.59-1.93,25.5,25.5,0,0,1,5-.6c.34,0,.49.11.48.47C120.15,29.19,120.16,29.74,120.16,30.28Z"/><path class="cls-1" d="M143.33,8.86c0,9.56,0,19.12,0,28.68,0,.8-.24,1.09-1,1.2a16.67,16.67,0,0,1-4.68.17,3.26,3.26,0,0,1-3.18-3.38c0-5,0-10.07,0-15.11h0c0-4.88,0-9.77,0-14.66,0-.83.15-1.22,1.07-1.34a16.23,16.23,0,0,1,4.87-.1,3.14,3.14,0,0,1,2.83,2.74A10.84,10.84,0,0,1,143.33,8.86Z"/><path class="cls-1" d="M171.55,16.28a13,13,0,0,0-8.63-3.71,14.58,14.58,0,0,0-9.68,2.26c-3.88,2.69-5.41,6.56-5.35,11.15,0,.51,0,1,0,1.54a12.25,12.25,0,0,0,8.44,11.09,16.89,16.89,0,0,0,7.6.65,12.79,12.79,0,0,0,7.69-3.48,12.63,12.63,0,0,0,3.57-8.19C175.56,23.33,174.66,19.42,171.55,16.28Zm-6.19,13.77a3.77,3.77,0,0,1-3.77,2.45,4.12,4.12,0,0,1-4-2.83,10.73,10.73,0,0,1,0-7.43,4.06,4.06,0,0,1,4.24-2.76,3.62,3.62,0,0,1,3.53,2.33A10.27,10.27,0,0,1,165.36,30.05Z"/><path class="cls-2" d="M25.46,37.9l-.53.12c-.15,0-.22,0-.24-.11s0,0,0,0l.06,0a14.12,14.12,0,0,0-8.12-26.91A13.88,13.88,0,0,0,5.24,23.18a13.91,13.91,0,0,0,7.52,14.09c.25.14.58.19.69.53a17.15,17.15,0,0,1-7.08-4.06A19.26,19.26,0,0,1,11,2,19.4,19.4,0,1,1,25.46,37.9Z"/><path class="cls-2" d="M171.55,16.28a13,13,0,0,0-8.63-3.71,14.58,14.58,0,0,0-9.68,2.26c-3.88,2.69-5.41,6.56-5.35,11.15,0,.51,0,1,0,1.54a12.25,12.25,0,0,0,8.44,11.09,16.89,16.89,0,0,0,7.6.65,12.79,12.79,0,0,0,7.69-3.48,12.63,12.63,0,0,0,3.57-8.19C175.56,23.33,174.66,19.42,171.55,16.28Zm-6.19,13.77a3.77,3.77,0,0,1-3.77,2.45,4.12,4.12,0,0,1-4-2.83,10.73,10.73,0,0,1,0-7.43,4.06,4.06,0,0,1,4.24-2.76,3.62,3.62,0,0,1,3.53,2.33A10.27,10.27,0,0,1,165.36,30.05Z"/><path class="cls-2" d="M128.85,32.69c-.14-1.71,0-3.44,0-5.16h0c0-1.93.06-3.86,0-5.78-.16-4.29-2.35-7.1-6.45-8.39a23.28,23.28,0,0,0-9.86-.61,13.74,13.74,0,0,0-3.94.94,3.88,3.88,0,0,0-1.4,6.39.87.87,0,0,0,1.1.31,16.64,16.64,0,0,1,4.56-1.12,13.2,13.2,0,0,1,5.38.27,2.42,2.42,0,0,1,1.93,2c.08.51-.06.77-.63.82-1.38.11-2.77.24-4.15.4a25.11,25.11,0,0,0-6,1.06,6.72,6.72,0,0,0-4.1,3.34c-1.57,3.34-1.27,8.8,4.1,11a21.25,21.25,0,0,0,9.71,1.17,16.56,16.56,0,0,0,6.78-1.76C127.84,36.54,129,35.09,128.85,32.69Zm-8.69-2.41h0v.27c0,2,0,2-1.92,2.29a7.81,7.81,0,0,1-3.5-.11,2.12,2.12,0,0,1-1.66-2,1.9,1.9,0,0,1,1.59-1.93,25.5,25.5,0,0,1,5-.6c.34,0,.49.11.48.47C120.15,29.19,120.16,29.74,120.16,30.28Z"/><path class="cls-2" d="M100.22,37.87c0,.4,0,.7-.52.79a14.77,14.77,0,0,1-5.66.17,3.09,3.09,0,0,1-2.54-2.51,8.08,8.08,0,0,1-.19-2q0-5.7,0-11.4c0-2.56-1-3.52-3.6-3.47a11.5,11.5,0,0,0-1.18.07c-2.11.28-2.46.68-2.46,2.77v7.15c0,2.74,0,5.49,0,8.23,0,.71-.24.92-.89,1a15.91,15.91,0,0,1-4.87.17,3.21,3.21,0,0,1-3-2.95,13.47,13.47,0,0,1-.13-1.79c0-4.77,0-9.53,0-14.29a5,5,0,0,1,2.66-4.77,19.22,19.22,0,0,1,11.48-2.53,14.31,14.31,0,0,1,6.43,1.65,8.24,8.24,0,0,1,4.46,7.37C100.25,27,100.21,32.44,100.22,37.87Z"/><path class="cls-2" d="M55.33,29.23l.71-.11c3.91-.6,7.82-1.17,11.72-1.8A3.37,3.37,0,0,0,70.83,24a9.42,9.42,0,0,0-1-5.08,11.19,11.19,0,0,0-8.33-6A14.28,14.28,0,0,0,51.09,14.4c-4.15,2.52-5.76,6.47-5.7,11.19,0,.54,0,1.09,0,1.63.39,4.15,2.06,7.59,5.67,9.88a16.67,16.67,0,0,0,10.62,2.25A15,15,0,0,0,67.39,38a3.92,3.92,0,0,0,.92-6.65.77.77,0,0,0-1-.15,14,14,0,0,1-7.72,1.51,6.17,6.17,0,0,1-4.77-2.22C54,29.53,54.09,29.45,55.33,29.23Zm-1.14-5.78c-.57.12-.63-.08-.6-.42a4.67,4.67,0,0,1,4-4c2.39-.22,4,.6,4.68,2.41.17.42.17.66-.35.74Z"/><path class="cls-2" d="M143.36,37.54c0,.8-.24,1.09-1,1.2a16.67,16.67,0,0,1-4.68.17,3.26,3.26,0,0,1-3.18-3.38c0-5,0-10.07,0-15.11h0c0-4.88,0-9.77,0-14.66,0-.83.15-1.22,1.07-1.34a16.23,16.23,0,0,1,4.87-.1,3.14,3.14,0,0,1,2.83,2.74,10.84,10.84,0,0,1,.15,1.8C143.34,18.42,143.32,28,143.36,37.54Z"/><path class="cls-1" d="M24.75,37.25c-.6.35-1.23.64-1.85,1,.17-.55.7-.64,1.11-.85a10.12,10.12,0,0,0-3.53-19.07A10.22,10.22,0,0,0,9,27.28a10,10,0,0,0,4.2,9.37,5.17,5.17,0,0,1,1.15.88.56.56,0,0,1,0,.15l-.07,0a10.7,10.7,0,0,1-5.51-7.74,10.54,10.54,0,1,1,15.9,7.33Z"/><path class="cls-1" d="M24.74,37.85a.15.15,0,0,1,0,.06,1,1,0,0,1-.4.2l-.08,0h0a2.07,2.07,0,0,1-.49.12h-.08c-.24,0-.45.27-.71.08l.73-.15.56-.17.49-.16Z"/><path class="cls-2" d="M24.75,37.25c-.6.35-1.23.64-1.85,1-.32,0-.62.25-1,.08a5,5,0,0,0,2.47-3.09,5.08,5.08,0,0,0-9.43-3.62,5,5,0,0,0,1.79,6.5,3.65,3.65,0,0,0,.55.3c.06.17,0,.24-.16.19l-1.79-.42h0a1.75,1.75,0,0,0-.85-.47l-.07,0a10.7,10.7,0,0,1-5.51-7.74,10.54,10.54,0,1,1,15.9,7.33Z"/><path class="cls-3" d="M23.69,38.27h-.08c-.24,0-.45.27-.71.08l.73-.15A.1.1,0,0,1,23.69,38.27Z"/><path class="cls-4" d="M18,38.63c-.45.1-.7.16-.93-.06.05-.07.11-.12.16-.19Z"/><path class="cls-5" d="M24.38,38.19a.69.69,0,0,0,.55-.17l-.19-.17-.06,0-.49.16a.53.53,0,0,0,0,.12Z"/><path class="cls-6" d="M24.38,38.19a.34.34,0,0,1-.09-.08l-.1-.08-.56.17v.07h.06a2.07,2.07,0,0,0,.49-.12Z"/></g></g></g></svg>